<?xml version="1.0" encoding="UTF-8"?>
<svg fill="#FFFFFF" width="100pt" height="100pt" version="1.1" viewBox="0 0 100 100" xmlns="http://www.w3.org/2000/svg">
 <path d="m75.891 24.965c-2.082 0.066406-4.0547 0.94141-5.5 2.4375-9.0273 9.0469-19.328 19.324-28.812 28.812l-12.406-10.312c-1.6211-1.4219-3.75-2.1289-5.8984-1.9648-2.1523 0.16797-4.1445 1.1953-5.5234 2.8516-1.3828 1.6562-2.0391 3.8008-1.8164 5.9453 0.21875 2.1445 1.2969 4.1094 2.9883 5.4492l18 15c3.1797 2.6484 7.8555 2.4297 10.781-0.5 10.652-10.676 23.32-23.297 34-34 2.3516-2.3008 3.0586-5.8086 1.7734-8.8398-1.2852-3.0312-4.2969-4.9688-7.5859-4.8789z"/>
</svg>
