<?xml version="1.0" encoding="UTF-8"?>
<svg fill="#FFFFFF" width="100pt" height="100pt" version="1.1" viewBox="0 0 100 100" xmlns="http://www.w3.org/2000/svg">
 <path d="m63.113 22.031c0.13672 0.53516 0.6875 0.96875 1.2383 0.96875h10.648c1.9336 0 3.5 1.5664 3.5 3.5 0 1.5977-1.0703 2.9414-2.5273 3.3633l-1.8281 50.266c-0.14844 4.0898-3.5508 7.3711-7.6523 7.3711h-32.984c-4.0938 0-7.5039-3.2852-7.6523-7.3711l-1.8281-50.266c-1.457-0.42188-2.5273-1.7656-2.5273-3.3633 0-1.9336 1.5664-3.5 3.5-3.5h10.648c0.55078 0 1.1055-0.44141 1.2383-0.96875l0.74609-2.9961c0.92578-3.7031 4.5508-6.5352 8.3633-6.5352h8.0078c3.8164 0 7.4375 2.832 8.3633 6.5352zm-15.613 16.969v34c0 1.3789 1.1211 2.5 2.5 2.5s2.5-1.1211 2.5-2.5v-34c0-1.3789-1.1211-2.5-2.5-2.5s-2.5 1.1211-2.5 2.5zm-11.5 0.074219l1 34c0.042969 1.3789 1.1953 2.4648 2.5742 2.4258 1.3789-0.042969 2.4648-1.1953 2.4258-2.5742l-1-34c-0.042969-1.3789-1.1953-2.4648-2.5742-2.4258-1.3789 0.042969-2.4648 1.1953-2.4258 2.5742zm23-0.14844l-1 34c-0.039062 1.3789 1.0469 2.5312 2.4258 2.5742 1.3789 0.039062 2.5312-1.0469 2.5742-2.4258l1-34c0.039062-1.3789-1.0469-2.5312-2.4258-2.5742-1.3789-0.039062-2.5312 1.0469-2.5742 2.4258zm-14.645-15.926h11.289c0.27344 0 0.44531-0.21484 0.37891-0.48047l-0.44922-1.7891c-0.14453-0.58594-0.96875-1.2305-1.5703-1.2305h-8.0078c-0.60156 0-1.4258 0.64453-1.5703 1.2305l-0.44922 1.7891c-0.066406 0.26953 0.10547 0.48047 0.37891 0.48047z"/>
</svg>
