<?xml version="1.0" encoding="UTF-8"?>
<svg fill="#FFFFFF" width="100pt" height="100pt" version="1.1" viewBox="0 0 100 100" xmlns="http://www.w3.org/2000/svg">
 <path d="m77.18 30.441l-7.6211-7.6211c-1.9492-1.9531-5.1172-1.9531-7.0703 0l-33.488 33.461c-0.23828 0.23828-0.41406 0.53516-0.51172 0.85938l-4.8086 16.699c-0.17578 0.60547-0.058594 1.2578 0.32031 1.7617 0.37891 0.50391 0.96875 0.79688 1.6016 0.79688 0.1875 0 0.375-0.023438 0.55859-0.078126l16.711-4.8516c0.32422-0.09375 0.62109-0.26953 0.85938-0.50781l33.449-33.449c1.9531-1.9531 1.9531-5.1211 0-7.0703zm-48.641 41l3.0898-10.66 7.5586 7.5586z"/>
</svg>
