<?xml version="1.0" encoding="UTF-8"?>
<svg fill="#6D6D6D" width="100pt" height="100pt" version="1.1" viewBox="0 0 100 100" xmlns="http://www.w3.org/2000/svg">
 <path d="m86.301 36.301l-31.898-31.898c-1.1992-1.1992-2.8008-1.8008-4.3984-1.8008-1.6016 0-3.1992 0.60156-4.3984 1.8008l-31.898 31.898c-2.3984 2.3984-2.3984 6.3984 0 8.8008 2.3984 2.3984 6.3984 2.3984 8.8008 0l21.102-21.102v67.301c0 3.3984 2.8008 6.1992 6.1992 6.1992 3.3984 0 6.1992-2.8008 6.1992-6.1992v-67.801l21.5 21.5c2.3984 2.3984 6.3984 2.3984 8.8008 0 2.4922-2.3984 2.4922-6.3008-0.007813-8.6992z"/>
</svg>
