<?xml version="1.0" encoding="UTF-8"?>
<svg fill="#FFFFFF" width="100pt" height="100pt" version="1.1" viewBox="0 0 100 100" xmlns="http://www.w3.org/2000/svg">
 <path d="m42.996 10c-18.152 0-32.996 14.844-32.996 32.996s14.844 32.996 32.996 32.996c6.918 0 13.336-2.168 18.656-5.8438l18.094 18.094c2.3438 2.3438 6.1562 2.3438 8.5 0s2.3438-6.125 0-8.4688l-18.094-18.09c3.6758-5.3203 5.8438-11.766 5.8438-18.688 0-18.152-14.844-32.996-32.996-32.996zm0 12c11.668 0 21 9.332 21 21s-9.332 21-21 21c-11.668 0-21-9.332-21-21s9.332-21 21-21z"/>
</svg>
