<?xml version="1.0" encoding="UTF-8"?>
<svg fill="#FFFFFF" width="100pt" height="100pt" version="1.1" viewBox="0 0 100 100" xmlns="http://www.w3.org/2000/svg">
 <g>
  <path d="m6.25 2.2109h-3.125c-1.7266 0-3.125 1.3945-3.125 3.125v78.125c0 1.7266 1.3984 3.125 3.125 3.125h3.125c1.7266 0 3.125-1.3984 3.125-3.125v-78.125c0-1.7305-1.3984-3.125-3.125-3.125z"/>
  <path d="m96.875 2.2109h-3.125c-1.7266 0-3.125 1.3984-3.125 3.125v78.125c0 1.7266 1.3984 3.125 3.125 3.125h3.125c1.7266 0 3.125-1.3984 3.125-3.125v-78.125c0-1.7305-1.3984-3.125-3.125-3.125z"/>
  <path d="m18.75 64.711c1.7266 0 3.125-1.3984 3.125-3.125v-56.25c0-1.7266-1.3984-3.125-3.125-3.125s-3.125 1.3945-3.125 3.125v56.25c0 1.7266 1.3984 3.125 3.125 3.125z"/>
  <path d="m53.125 5.3359c0-1.7266-1.3984-3.125-3.125-3.125s-3.125 1.3984-3.125 3.125v36.52c2.1484 0 4.2461 0.31641 6.25 0.90625z"/>
  <path d="m40.625 42.758v-37.422c0-1.7266-1.3984-3.125-3.125-3.125h-6.25c-1.7266 0-3.125 1.3945-3.125 3.125v47.172c0.90234-1.5078 1.9805-2.9453 3.2812-4.2461 2.6133-2.6172 5.7734-4.4805 9.2188-5.5039z"/>
  <path d="m68.695 64.711h0.054688c1.7266 0 3.125-1.3984 3.125-3.125v-56.25c0-1.7266-1.3984-3.125-3.125-3.125h-6.25c-1.7266 0-3.125 1.3984-3.125 3.125v40.453c1.0469 0.73047 2.043 1.5469 2.9648 2.4688 4.4961 4.4961 6.6289 10.492 6.3555 16.453z"/>
  <path d="m81.25 2.2109c-1.7266 0-3.125 1.3984-3.125 3.125v56.25c0 1.7266 1.3984 3.125 3.125 3.125s3.125-1.3984 3.125-3.125v-56.25c0-1.7305-1.3984-3.125-3.125-3.125z"/>
  <path d="m25 70.961h-6.25c-1.7266 0-3.125 1.3984-3.125 3.1211v6.2578c0 1.7266 1.3984 3.1211 3.125 3.1211h6.25c1.7266 0 3.125-1.3984 3.125-3.1211v-5.3945c-0.69531-1.1641-1.2773-2.3789-1.7422-3.625-0.41797-0.21094-0.875-0.35937-1.3828-0.35937z"/>
  <path d="m81.25 70.961h-6.25c-1.7266 0-3.125 1.3984-3.125 3.125v1.8164c0.54688 0.28906 1.0703 0.63672 1.5156 1.0859l6.4766 6.4727h1.3828c1.7266 0 3.125-1.3984 3.125-3.125v-6.25c0-1.7305-1.3984-3.125-3.125-3.125z"/>
  <path d="m71.18 79.195c-1.2227-1.2227-3.1953-1.2227-4.418 0l-4.6211-4.6211c5.2109-7.3203 4.5547-17.539-2.0117-24.109-7.3203-7.3203-19.195-7.3203-26.516 0-7.3203 7.3242-7.3203 19.195 0 26.516 6.5703 6.5703 16.785 7.2266 24.109 2.0117l4.6211 4.6211c-0.58594 0.58594-0.91406 1.3789-0.91406 2.2109s0.32422 1.625 0.91406 2.2109l8.8398 8.8359c0.58594 0.58594 1.3789 0.91406 2.2109 0.91406 0.82812 0 1.625-0.32812 2.2109-0.91406l4.418-4.4219c1.2227-1.2227 1.2227-3.1953 0-4.418zm-15.469-6.6289c-4.8789 4.8789-12.805 4.8789-17.68 0-4.875-4.875-4.875-12.805 0-17.676 4.875-4.8789 12.805-4.8789 17.68 0 4.875 4.8711 4.875 12.801 0 17.676z"/>
 </g>
</svg>
