<?xml version="1.0" encoding="UTF-8"?>
<svg fill="#FFFFFF" width="100pt" height="100pt" version="1.1" viewBox="0 0 100 100" xmlns="http://www.w3.org/2000/svg">
 <g>
  <path d="m81.32 4.9766l-11.465 7.9727-0.44922 7.8438 9.3633 8.9219 6.6445-0.77344 9.0117-10.043s3.4727-1.2891 2.6289 4.6094c-0.85156 5.9023-1.1641 7.3789-1.1641 7.3789s-4.3789 11.922-14.516 10.762c-0.79297-0.11328-7.7109-1.0039-7.7109-1.0039s-4.9961-0.007812-8.7344 4.0391c-3.7461 4.0508-10.996 11.059-10.996 11.059l-8.1875-9.6484 8.3633-8.9883s4.7539-6.3555 3.8477-9.2422c-0.90625-2.875-1.8945-8.7344-1.3164-12.734 0.58594-4.0039 0.48438-3.4023 0.48438-3.4023s2.1211-11.121 16.27-9.4805c3.5156 0.40625 6.3828 1.0234 6.3828 1.0234 0.007812 0.003907 1.8789-0.23047 1.543 1.707z"/>
  <path d="m45.598 46.098l8.4258-9.043c0.011718-0.011719 3.4609-4.6367 3.9062-7.7344 0.078124-0.52344 0.074218-1.0039-0.058594-1.4023-0.91016-2.9062-1.9023-8.7656-1.3359-12.793 0.37891-2.6172 0.47656-3.2656 0.49219-3.3906l0.007812-0.042969c0-0.007812 0.007813-0.011718 0.007813-0.023437 0.089843-0.39844 0.70312-2.9648 2.8438-5.3477 2.3125-2.6094 6.4297-4.9922 13.527-4.1602 0.69531 0.074219 1.375 0.16016 2.0117 0.24609 2.3945 0.35156 4.1719 0.73047 4.3633 0.75781 0.054688-0.003906 0.25391-0.007812 0.49219 0.015626 0.27734 0.050781 0.60938 0.15234 0.86328 0.42187 0.23828 0.25781 0.37891 0.69141 0.28516 1.3164-0.003907 0.027343-0.003907 0.054687-0.011719 0.085937l-0.003907 0.042969-11.469 7.9727-0.42578 7.75 9.3008 8.8516 6.5469-0.75781 9.0078-10.039 0.023438-0.015625c0.011718 0 0.50781-0.19141 1.0977-0.11328 0.48828 0.078126 1.0703 0.35938 1.4258 1.082 0.35938 0.73047 0.51562 1.8828 0.24609 3.7578-0.85938 5.8984-1.1719 7.3789-1.1836 7.3906 0 0.007813-4.375 11.988-14.617 10.828-0.80469-0.11328-7.6914-1.0078-7.6914-1.0078-0.007812 0-1.2383-0.007813-2.9453 0.49219-1.7109 0.50391-3.8672 1.5117-5.7227 3.5156-3.7578 4.0586-10.984 11.07-10.984 11.07l-0.085938 0.078125z"/>
  <path d="m56.754 15.145c-0.57031 3.9609 0.42188 9.8203 1.3164 12.695 0.13281 0.44141 0.15625 0.95312 0.078126 1.5078-0.47656 3.1953-3.9492 7.8086-3.9492 7.832l-8.3086 8.918 8.0664 9.5c0.79297-0.78125 7.3828-7.1875 10.895-10.988 3.7812-4.082 8.8164-4.0781 8.8398-4.0781 0 0 6.9062 0.90234 7.6953 1.0234 5.0352 0.57422 8.625-2.0898 10.973-4.9062 2.3438-2.8086 3.4336-5.7695 3.4336-5.7695 0-0.015625 0.30859-1.4844 1.1641-7.3789 0.52734-3.6875-0.61719-4.457-1.4844-4.5938-0.45703-0.066406-0.86719 0.066406-0.96875 0.089844l-9.0234 10.059-6.7305 0.77734-9.4414-8.9961 0.45312-7.9375 11.465-7.9844c0.011719-0.019531 0.011719-0.03125 0.011719-0.035156 0.15234-1.1758-0.48047-1.3984-0.98047-1.4883-0.25391-0.039063-0.45703-0.023437-0.45703-0.023437h-0.039062s-1.8438-0.39453-4.3516-0.75391c-0.64062-0.09375-1.3125-0.17969-2.0156-0.27344-7.0586-0.80859-11.074 1.5469-13.348 4.1016-2.2578 2.5273-2.793 5.2578-2.8047 5.3086-0.023438 0.14453-0.12109 0.8125-0.48828 3.3945z"/>
  <path d="m57.785 52.047l-45.059 45.051c-1.6641 1.6797-5.0586 0.99219-7.5703-1.5273-2.5273-2.5352-3.2148-5.9102-1.5352-7.5781l45.047-45.066c2.168 2.1914 6.5273 6.4336 9.1172 9.1211z"/>
  <path d="m81.902 68.672c12.359 3.4141 21.945 22.965 17.559 27.727-4.4023 4.7734-25.961-4.3164-30.789-16.242-13.008-11.992-20.672-22.375-16.281-27.148 4.4023-4.7617 16.512 3.6758 29.512 15.664z"/>
  <path d="m-0.54297 11.895l4.875-5.6445 9.125 2.9883 4.2305 8.6172 37.48 32.578c1.7031 1.4766 1.9883 3.9414 0.62891 5.5-1.3477 1.5508-3.8164 1.6211-5.5195 0.14062l-37.496-32.582-9.1055-2.9844z"/>
 </g>
</svg>
