<?xml version="1.0" encoding="UTF-8"?>
<svg fill="#FFFFFF" width="100pt" height="100pt" version="1.1" viewBox="0 0 100 100" xmlns="http://www.w3.org/2000/svg">
 <path d="m50.094 4c0.38672 0.011719 0.74219 0.089844 1.0312 0.1875l40 16c1.1094 0.44922 1.8867 1.6172 1.875 2.8125v54c0 1.1875-0.77344 2.3359-1.875 2.7812l-40 16c-0.71094 0.28906-1.5391 0.28906-2.25 0l-40-16c-1.1016-0.44531-1.875-1.5938-1.875-2.7812v-54c-0.011719-1.1953 0.76562-2.3633 1.875-2.8125l40-16c0.41406-0.14844 0.83203-0.19922 1.2188-0.1875zm-0.09375 6.2188l-31.875 12.75 11.875 4.7812 31.906-12.781zm20 8l-31.875 12.75 11.875 4.7812 31.875-12.781zm17 9.2188l-34 13.594v47.531l34-13.625zm-74 0v47.5l34 13.625v-47.531l-14-5.5938v11.562c0.011719 0.80469-0.30078 1.5781-0.86328 2.1484-0.5625 0.57422-1.332 0.89453-2.1367 0.89453s-1.5742-0.32031-2.1367-0.89453c-0.5625-0.57031-0.875-1.3438-0.86328-2.1484v-13.969z"/>
</svg>
