<?xml version="1.0" encoding="UTF-8"?>
<svg fill="#FFFFFF" width="100pt" height="100pt" version="1.1" viewBox="0 0 100 100" xmlns="http://www.w3.org/2000/svg">
 <path d="m80 5h-60c-8.5 0-15 6.5-15 15v60c0 8.5 6.5 15 15 15h60c8.5 0 15-6.5 15-15v-60c0-8.5-6.5-15-15-15zm-20 50c-3 0-5 2-5 5h-10c0-3-2-5-5-5s-5 2-5 5h-20v-20h10c0 3 2 5 5 5s5-2 5-5h10c0 3 2 5 5 5s5-2 5-5h10c0 3 2 5 5 5s5-2 5-5h10v20h-20c0-3-2-5-5-5zm-40-40h60c3 0 5 2 5 5v10h-10c0-3-2-5-5-5s-5 2-5 5h-10c0-3-2-5-5-5s-5 2-5 5h-10c0-3-2-5-5-5s-5 2-5 5h-10v-10c0-3 2-5 5-5zm60 70h-60c-3 0-5-2-5-5v-10h20c0 3 2 5 5 5s5-2 5-5h10c0 3 2 5 5 5s5-2 5-5h20v10c0 3-2 5-5 5z"/>
</svg>
