<?xml version="1.0" encoding="UTF-8"?>
<svg fill="#FFFFFF" width="100pt" height="100pt" version="1.1" viewBox="0 0 100 100" xmlns="http://www.w3.org/2000/svg">
 <g>
  <path d="m59.246 10.531h-24.695l-14.16 22.535 18.062 10.406z"/>
  <path d="m62.871 67.027v-6.793l-10.547 16.902 10.547 18.438v-7.4531l13.438-0.14844 12.566-20.945z"/>
  <path d="m31.375 55.609l6.5 3.7539-9.8242-17.336-21.422 0.046875 7.1172 4.4297-6.3594 11.559 10.113 20.375z"/>
  <path d="m53.16 20.168l-1.6484 2.6172 0.007812 0.039063z"/>
  <path d="m74.141 22.234l-8.2344-11.703h-4.3477l-8.9531 14.512 3.4727 7.1602-7.0781 4.332h21.387l11.266-17.484z"/>
  <path d="m27.824 65.578l-9.2422 14.973 3.3594 6.5547h27.059v-21.527z"/>
  <path d="m90.137 64.941l3.9453-6.5508-12.43-23.297-18.781 10.547 11.602 19.301z"/>
 </g>
</svg>
