<?xml version="1.0" encoding="UTF-8"?>
<svg fill="#FFFFFF" width="100pt" height="100pt" version="1.1" viewBox="0 0 100 100" xmlns="http://www.w3.org/2000/svg">
 <path d="m39.582 27.082v8.332h-7.5c-4.168 0-5.832 4.582-6.457 6.25l-2.082 6.25-0.625 0.003907c-3.543 0-6.25 2.707-6.25 6.25v4.168l-2.0859-0.003907v8.332h8.332c0 4.582 3.75 8.332 8.332 8.332 4.582 0 8.332-3.75 8.332-8.332h20.832c0 4.582 3.75 8.332 8.332 8.332 4.582 0 8.332-3.75 8.332-8.332h8.332l0.011719-39.582zm-11.039 15.625c0.625-1.875 1.668-4.168 3.543-4.168l7.4961 0.003907v9.375h-12.707z" fill-rule="evenodd"/>
</svg>
