<?xml version="1.0" encoding="UTF-8"?>
<svg fill="#FFFFFF" width="100pt" height="100pt" version="1.1" viewBox="0 0 100 100" xmlns="http://www.w3.org/2000/svg">
 <path d="m25.184 47.082h35.402c1.8242 0 3.2852 1.4609 3.2852 3.2852 0 1.8242-1.4609 3.2852-3.2852 3.2852h-35.402c-1.8242 0-3.2852-1.4609-3.2852-3.2852 0-1.8242 1.4609-3.2852 3.2852-3.2852zm0 15.328h35.402c1.8242 0 3.2852 1.4609 3.2852 3.2852 0 1.8242-1.4609 3.2852-3.2852 3.2852h-35.402c-1.8242 0-3.2852-1.4609-3.2852-3.2852 0-1.8242 1.4609-3.2852 3.2852-3.2852zm0 15.328h22.992c1.8242 0 3.2852 1.4609 3.2852 3.2852 0 1.8242-1.4609 3.2852-3.2852 3.2852h-22.992c-1.8242 0-3.2852-1.4609-3.2852-3.2852 0-1.8242 1.4609-3.2852 3.2852-3.2852zm-8.0273-63.141h32.848v3.2852c0 12.773 10.219 23.359 22.992 23.359 1.4609 0 2.5547-0.36328 3.6484-0.36328v51.094c0 4.3789-3.6484 8.0273-8.0273 8.0273h-51.461c-4.3789 0-8.0273-3.6484-8.0273-8.0273v-69.344c0-4.3789 3.6484-8.0273 8.0273-8.0273zm55.84-14.598c9.8555 0 17.883 8.0273 17.883 17.883 0 9.8555-8.0273 17.883-17.883 17.883-9.8555 0-17.883-8.0273-17.883-17.883 0-9.8555 8.0273-17.883 17.883-17.883zm-2.1914 10.219c0-1.4609 1.0938-2.5547 2.1914-2.5547 1.4609 0 2.5547 1.0938 2.5547 2.5547v5.1094h5.1094c1.4609 0 2.5547 1.0938 2.5547 2.5547 0 1.4609-1.0938 2.5547-2.5547 2.5547h-5.1094v5.1094c0 1.4609-1.0938 2.5547-2.5547 2.5547-1.0938 0-2.1914-1.0938-2.1914-2.5547v-5.1094h-5.4727c-1.0938 0-2.1914-1.0938-2.1914-2.5547 0-1.4609 1.0938-2.5547 2.1914-2.5547h5.4727z" fill-rule="evenodd"/>
</svg>
