<?xml version="1.0" encoding="UTF-8"?>
<svg fill="#FFFFFF" width="100pt" height="100pt" version="1.1" viewBox="0 0 100 100" xmlns="http://www.w3.org/2000/svg">
 <path d="m97.707 76.668l-16.25-16.25c1.875-3.543 2.918-7.5 2.918-11.875 0-10.418-6.457-19.582-15.625-23.332v-18.961c0-3.543-2.707-6.25-6.25-6.25h-56.25c-3.543 0-6.25 2.707-6.25 6.25v87.5c0 3.543 2.707 6.25 6.25 6.25h56.457c3.543 0 6.25-2.707 6.25-6.25v-21.875c0.625-0.20703 1.457-0.625 2.082-0.83203l16.25 16.25c2.918 2.918 7.707 2.918 10.625 0 2.918-2.918 2.918-7.7109-0.20703-10.625zm-66.25-72.711h6.043c1.25 0 2.082 0.83203 2.082 2.082 0 1.043-0.83203 2.082-2.082 2.082h-6.043c-1.25 0-2.082-1.043-2.082-2.082 0-1.2461 0.83203-2.082 2.082-2.082zm2.918 92.086c-2.293 0-4.168-1.875-4.168-4.168s1.875-4.168 4.168-4.168 4.168 1.875 4.168 4.168c0 2.5-1.875 4.168-4.168 4.168zm26.25-12.711h-52.293v-70.832h52.293v10.832h-1.457c-13.957 0-25.207 11.25-25.207 25.207 0 13.957 11.25 25.207 25.207 25.207h1.457zm-1.457-17.707c-9.375 0-16.875-7.707-16.875-16.875 0-9.375 7.5-16.875 16.875-16.875s16.875 7.5 16.875 16.875c0 9.168-7.5 16.875-16.875 16.875z"/>
</svg>
